<?xml version="1.0" encoding="UTF-8"?> <svg xmlns="http://www.w3.org/2000/svg" xmlns:xlink="http://www.w3.org/1999/xlink" version="1.1" width="1920px" height="674px" style="shape-rendering:geometricPrecision; text-rendering:geometricPrecision; image-rendering:optimizeQuality; fill-rule:evenodd; clip-rule:evenodd"><g><path style="opacity:0.991" fill="#101010" d="M 191.5,-0.5 C 311.167,-0.5 430.833,-0.5 550.5,-0.5C 550.5,39.1667 550.5,78.8333 550.5,118.5C 429.833,118.333 309.166,118.5 188.5,119C 137.665,126.519 114.165,156.019 118,207.5C 121.767,241.605 140.267,263.105 173.5,272C 181.459,273.592 189.459,274.925 197.5,276C 261.5,276.333 325.5,276.667 389.5,277C 427.572,277.455 464.239,284.789 499.5,299C 550.802,322.652 582.635,362.152 595,417.5C 605.039,465.135 602.705,512.135 588,558.5C 566.88,612.948 528.046,647.781 471.5,663C 450.648,668.253 429.648,671.753 408.5,673.5C 275.833,673.5 143.167,673.5 10.5,673.5C 10.5,634.167 10.5,594.833 10.5,555.5C 139.167,555.667 267.834,555.5 396.5,555C 423.454,555.026 446.287,545.526 465,526.5C 481.974,501.746 486.641,474.746 479,445.5C 470.763,419.597 453.596,402.763 427.5,395C 416.072,391.606 404.406,389.606 392.5,389C 328.5,388.667 264.5,388.333 200.5,388C 162.137,386.929 125.47,378.595 90.5,363C 43.1272,338.149 14.2939,299.315 4,246.5C 2.24923,237.06 0.749227,227.727 -0.5,218.5C -0.5,201.167 -0.5,183.833 -0.5,166.5C 9.23599,76.9306 58.236,23.0972 146.5,5C 161.555,2.3645 176.555,0.531168 191.5,-0.5 Z"></path></g><g><path style="opacity:0.989" fill="#101010" d="M 729.5,-0.5 C 850.5,-0.5 971.5,-0.5 1092.5,-0.5C 1129.41,0.978816 1164.41,10.1455 1197.5,27C 1246.29,55.4991 1276.12,97.6658 1287,153.5C 1299.18,216.459 1288.51,275.126 1255,329.5C 1221.64,375.618 1176.48,402.451 1119.5,410C 1109.22,411.586 1098.89,412.586 1088.5,413C 1012.5,413.333 936.5,413.667 860.5,414C 852.398,416.188 848.398,421.521 848.5,430C 849.832,511.167 849.832,592.333 848.5,673.5C 809.167,673.5 769.833,673.5 730.5,673.5C 730.333,578.166 730.5,482.833 731,387.5C 735.486,330.685 766.319,301.518 823.5,300C 913.167,299.667 1002.83,299.333 1092.5,299C 1130.89,294.6 1156.06,274.1 1168,237.5C 1175.75,208.082 1172.09,180.082 1157,153.5C 1141.3,133.06 1120.47,121.56 1094.5,119C 972.834,118.5 851.167,118.333 729.5,118.5C 729.5,78.8333 729.5,39.1667 729.5,-0.5 Z"></path></g><g><path style="opacity:0.994" fill="#101010" d="M 1402.5,-0.5 C 1441.83,-0.5 1481.17,-0.5 1520.5,-0.5C 1520.33,148.167 1520.5,296.834 1521,445.5C 1522,502.356 1550.17,537.189 1605.5,550C 1622.67,553.383 1640,555.05 1657.5,555C 1744.83,555.5 1832.17,555.667 1919.5,555.5C 1919.5,594.833 1919.5,634.167 1919.5,673.5C 1822.83,673.5 1726.17,673.5 1629.5,673.5C 1591.91,672.014 1555.58,664.181 1520.5,650C 1461.56,623.013 1424.73,577.846 1410,514.5C 1406.58,499.33 1404.25,483.996 1403,468.5C 1402.5,312.167 1402.33,155.834 1402.5,-0.5 Z"></path></g></svg> 